<!DOCTYPE svg PUBLIC "-//W3C//DTD SVG 1.1//EN" "http://www.w3.org/Graphics/SVG/1.1/DTD/svg11.dtd">
<svg xmlns="http://www.w3.org/2000/svg" xmlns:xlink="http://www.w3.org/1999/xlink" xmlns:jfreesvg="http://www.jfree.org/jfreesvg/svg" width="800px" height="600px" text-rendering="auto" shape-rendering="auto">
<defs><clipPath id="3133456787141615clip-0"><path d="M 0 0 L 800 0 L 800 600 L 0 600 L 0 0 Z "/></clipPath>
<clipPath id="3133456787141615clip-1"><path d="M 53 29 L 53 526 L 792 526 L 792 29 Z "/></clipPath>
</defs>
<rect x="0" y="0" width="800" height="600" style="fill: rgb(255,255,255); fill-opacity: 1.0" transform="matrix(1,0,0,1,0,0)" clip-path="url(#3133456787141615clip-0)"/><g transform="matrix(1,0,0,1,0,0)"><text x="362.48" y="19.1" style="fill: rgb(0,0,0); fill-opacity: 1.0; font-family: sans-serif; font-size: 18px; font-weight: bold;" clip-path="url(#3133456787141615clip-0)">Revenue</text></g><rect x="297.94" y="577.91" width="204.13" height="21.09" style="fill: rgb(255,255,255); fill-opacity: 1.0" transform="matrix(1,0,0,1,0,0)" clip-path="url(#3133456787141615clip-0)"/><g style="stroke-width: 3.0;stroke: rgb(230,69,69);stroke-opacity: 0.8;stroke-linecap: square;shape-rendering:geometricPrecision;; fill: none" transform="matrix(1,0,0,1,0,0)" clip-path="url(#3133456787141615clip-0)"><path d="M 300.94 588.45 L 314.94 588.45"/></g><g transform="matrix(1,0,0,1,0,0)"><text x="318.94" y="592.97" style="fill: rgb(0,0,0); fill-opacity: 1.0; font-family: sans-serif; font-size: 12px;" clip-path="url(#3133456787141615clip-0)">Revenue 2015</text></g><g style="stroke-width: 3.0;stroke: rgb(69,230,69);stroke-opacity: 0.8;stroke-linecap: square;shape-rendering:geometricPrecision;; fill: none" transform="matrix(1,0,0,1,0,0)" clip-path="url(#3133456787141615clip-0)"><path d="M 403 588.45 L 417 588.45"/></g><g transform="matrix(1,0,0,1,0,0)"><text x="421" y="592.97" style="fill: rgb(0,0,0); fill-opacity: 1.0; font-family: sans-serif; font-size: 12px;" clip-path="url(#3133456787141615clip-0)">Revenue 2016</text></g><rect x="53" y="29" width="739" height="497" style="fill: rgb(255,255,255); fill-opacity: 1.0" transform="matrix(1,0,0,1,0,0)" clip-path="url(#3133456787141615clip-0)"/><line x1="53" y1="526" x2="792" y2="526" style="stroke-width: 0.5;stroke: rgb(128,128,128);stroke-opacity: 1.0;stroke-linecap: square;shape-rendering:crispEdges;" transform="matrix(1,0,0,1,0,0)" clip-path="url(#3133456787141615clip-0)"/><line x1="111.5" y1="526" x2="111.5" y2="526" style="stroke-width: 0.5;stroke: rgb(128,128,128);stroke-opacity: 1.0;stroke-linecap: square;shape-rendering:crispEdges;" transform="matrix(1,0,0,1,0,0)" clip-path="url(#3133456787141615clip-0)"/><line x1="111.5" y1="526" x2="111.5" y2="528" style="stroke-width: 0.5;stroke: rgb(128,128,128);stroke-opacity: 1.0;stroke-linecap: square;shape-rendering:crispEdges;" transform="matrix(1,0,0,1,0,0)" clip-path="url(#3133456787141615clip-0)"/><line x1="168.05" y1="526" x2="168.05" y2="526" style="stroke-width: 0.5;stroke: rgb(128,128,128);stroke-opacity: 1.0;stroke-linecap: square;shape-rendering:crispEdges;" transform="matrix(1,0,0,1,0,0)" clip-path="url(#3133456787141615clip-0)"/><line x1="168.05" y1="526" x2="168.05" y2="528" style="stroke-width: 0.5;stroke: rgb(128,128,128);stroke-opacity: 1.0;stroke-linecap: square;shape-rendering:crispEdges;" transform="matrix(1,0,0,1,0,0)" clip-path="url(#3133456787141615clip-0)"/><line x1="224.59" y1="526" x2="224.59" y2="526" style="stroke-width: 0.5;stroke: rgb(128,128,128);stroke-opacity: 1.0;stroke-linecap: square;shape-rendering:crispEdges;" transform="matrix(1,0,0,1,0,0)" clip-path="url(#3133456787141615clip-0)"/><line x1="224.59" y1="526" x2="224.59" y2="528" style="stroke-width: 0.5;stroke: rgb(128,128,128);stroke-opacity: 1.0;stroke-linecap: square;shape-rendering:crispEdges;" transform="matrix(1,0,0,1,0,0)" clip-path="url(#3133456787141615clip-0)"/><line x1="281.14" y1="526" x2="281.14" y2="526" style="stroke-width: 0.5;stroke: rgb(128,128,128);stroke-opacity: 1.0;stroke-linecap: square;shape-rendering:crispEdges;" transform="matrix(1,0,0,1,0,0)" clip-path="url(#3133456787141615clip-0)"/><line x1="281.14" y1="526" x2="281.14" y2="528" style="stroke-width: 0.5;stroke: rgb(128,128,128);stroke-opacity: 1.0;stroke-linecap: square;shape-rendering:crispEdges;" transform="matrix(1,0,0,1,0,0)" clip-path="url(#3133456787141615clip-0)"/><line x1="337.68" y1="526" x2="337.68" y2="526" style="stroke-width: 0.5;stroke: rgb(128,128,128);stroke-opacity: 1.0;stroke-linecap: square;shape-rendering:crispEdges;" transform="matrix(1,0,0,1,0,0)" clip-path="url(#3133456787141615clip-0)"/><line x1="337.68" y1="526" x2="337.68" y2="528" style="stroke-width: 0.5;stroke: rgb(128,128,128);stroke-opacity: 1.0;stroke-linecap: square;shape-rendering:crispEdges;" transform="matrix(1,0,0,1,0,0)" clip-path="url(#3133456787141615clip-0)"/><line x1="394.23" y1="526" x2="394.23" y2="526" style="stroke-width: 0.5;stroke: rgb(128,128,128);stroke-opacity: 1.0;stroke-linecap: square;shape-rendering:crispEdges;" transform="matrix(1,0,0,1,0,0)" clip-path="url(#3133456787141615clip-0)"/><line x1="394.23" y1="526" x2="394.23" y2="528" style="stroke-width: 0.5;stroke: rgb(128,128,128);stroke-opacity: 1.0;stroke-linecap: square;shape-rendering:crispEdges;" transform="matrix(1,0,0,1,0,0)" clip-path="url(#3133456787141615clip-0)"/><line x1="450.77" y1="526" x2="450.77" y2="526" style="stroke-width: 0.5;stroke: rgb(128,128,128);stroke-opacity: 1.0;stroke-linecap: square;shape-rendering:crispEdges;" transform="matrix(1,0,0,1,0,0)" clip-path="url(#3133456787141615clip-0)"/><line x1="450.77" y1="526" x2="450.77" y2="528" style="stroke-width: 0.5;stroke: rgb(128,128,128);stroke-opacity: 1.0;stroke-linecap: square;shape-rendering:crispEdges;" transform="matrix(1,0,0,1,0,0)" clip-path="url(#3133456787141615clip-0)"/><line x1="507.32" y1="526" x2="507.32" y2="526" style="stroke-width: 0.5;stroke: rgb(128,128,128);stroke-opacity: 1.0;stroke-linecap: square;shape-rendering:crispEdges;" transform="matrix(1,0,0,1,0,0)" clip-path="url(#3133456787141615clip-0)"/><line x1="507.32" y1="526" x2="507.32" y2="528" style="stroke-width: 0.5;stroke: rgb(128,128,128);stroke-opacity: 1.0;stroke-linecap: square;shape-rendering:crispEdges;" transform="matrix(1,0,0,1,0,0)" clip-path="url(#3133456787141615clip-0)"/><line x1="563.86" y1="526" x2="563.86" y2="526" style="stroke-width: 0.5;stroke: rgb(128,128,128);stroke-opacity: 1.0;stroke-linecap: square;shape-rendering:crispEdges;" transform="matrix(1,0,0,1,0,0)" clip-path="url(#3133456787141615clip-0)"/><line x1="563.86" y1="526" x2="563.86" y2="528" style="stroke-width: 0.5;stroke: rgb(128,128,128);stroke-opacity: 1.0;stroke-linecap: square;shape-rendering:crispEdges;" transform="matrix(1,0,0,1,0,0)" clip-path="url(#3133456787141615clip-0)"/><line x1="620.41" y1="526" x2="620.41" y2="526" style="stroke-width: 0.5;stroke: rgb(128,128,128);stroke-opacity: 1.0;stroke-linecap: square;shape-rendering:crispEdges;" transform="matrix(1,0,0,1,0,0)" clip-path="url(#3133456787141615clip-0)"/><line x1="620.41" y1="526" x2="620.41" y2="528" style="stroke-width: 0.5;stroke: rgb(128,128,128);stroke-opacity: 1.0;stroke-linecap: square;shape-rendering:crispEdges;" transform="matrix(1,0,0,1,0,0)" clip-path="url(#3133456787141615clip-0)"/><line x1="676.95" y1="526" x2="676.95" y2="526" style="stroke-width: 0.5;stroke: rgb(128,128,128);stroke-opacity: 1.0;stroke-linecap: square;shape-rendering:crispEdges;" transform="matrix(1,0,0,1,0,0)" clip-path="url(#3133456787141615clip-0)"/><line x1="676.95" y1="526" x2="676.95" y2="528" style="stroke-width: 0.5;stroke: rgb(128,128,128);stroke-opacity: 1.0;stroke-linecap: square;shape-rendering:crispEdges;" transform="matrix(1,0,0,1,0,0)" clip-path="url(#3133456787141615clip-0)"/><line x1="733.5" y1="526" x2="733.5" y2="526" style="stroke-width: 0.5;stroke: rgb(128,128,128);stroke-opacity: 1.0;stroke-linecap: square;shape-rendering:crispEdges;" transform="matrix(1,0,0,1,0,0)" clip-path="url(#3133456787141615clip-0)"/><line x1="733.5" y1="526" x2="733.5" y2="528" style="stroke-width: 0.5;stroke: rgb(128,128,128);stroke-opacity: 1.0;stroke-linecap: square;shape-rendering:crispEdges;" transform="matrix(1,0,0,1,0,0)" clip-path="url(#3133456787141615clip-0)"/><g transform="matrix(1,0,0,1,0,0)"><text x="101.83" y="544.06" style="fill: rgb(51,51,51); fill-opacity: 1.0; font-family: sans-serif; font-size: 12px;" clip-path="url(#3133456787141615clip-0)">Jan</text></g><g transform="matrix(1,0,0,1,0,0)"><text x="157.71" y="544.06" style="fill: rgb(51,51,51); fill-opacity: 1.0; font-family: sans-serif; font-size: 12px;" clip-path="url(#3133456787141615clip-0)">Feb</text></g><g transform="matrix(1,0,0,1,0,0)"><text x="214.26" y="544.06" style="fill: rgb(51,51,51); fill-opacity: 1.0; font-family: sans-serif; font-size: 12px;" clip-path="url(#3133456787141615clip-0)">Mar</text></g><g transform="matrix(1,0,0,1,0,0)"><text x="271.8" y="544.06" style="fill: rgb(51,51,51); fill-opacity: 1.0; font-family: sans-serif; font-size: 12px;" clip-path="url(#3133456787141615clip-0)">Apr</text></g><g transform="matrix(1,0,0,1,0,0)"><text x="326.35" y="544.06" style="fill: rgb(51,51,51); fill-opacity: 1.0; font-family: sans-serif; font-size: 12px;" clip-path="url(#3133456787141615clip-0)">May</text></g><g transform="matrix(1,0,0,1,0,0)"><text x="384.55" y="544.06" style="fill: rgb(51,51,51); fill-opacity: 1.0; font-family: sans-serif; font-size: 12px;" clip-path="url(#3133456787141615clip-0)">Jun</text></g><g transform="matrix(1,0,0,1,0,0)"><text x="443.1" y="544.06" style="fill: rgb(51,51,51); fill-opacity: 1.0; font-family: sans-serif; font-size: 12px;" clip-path="url(#3133456787141615clip-0)">Jul</text></g><g transform="matrix(1,0,0,1,0,0)"><text x="496.64" y="544.06" style="fill: rgb(51,51,51); fill-opacity: 1.0; font-family: sans-serif; font-size: 12px;" clip-path="url(#3133456787141615clip-0)">Aug</text></g><g transform="matrix(1,0,0,1,0,0)"><text x="553.19" y="544.06" style="fill: rgb(51,51,51); fill-opacity: 1.0; font-family: sans-serif; font-size: 12px;" clip-path="url(#3133456787141615clip-0)">Sep</text></g><g transform="matrix(1,0,0,1,0,0)"><text x="611.07" y="544.06" style="fill: rgb(51,51,51); fill-opacity: 1.0; font-family: sans-serif; font-size: 12px;" clip-path="url(#3133456787141615clip-0)">Oct</text></g><g transform="matrix(1,0,0,1,0,0)"><text x="666.28" y="544.06" style="fill: rgb(51,51,51); fill-opacity: 1.0; font-family: sans-serif; font-size: 12px;" clip-path="url(#3133456787141615clip-0)">Nov</text></g><g transform="matrix(1,0,0,1,0,0)"><text x="722.83" y="544.06" style="fill: rgb(51,51,51); fill-opacity: 1.0; font-family: sans-serif; font-size: 12px;" clip-path="url(#3133456787141615clip-0)">Dec</text></g><g transform="matrix(1,0,0,1,0,0)"><text x="401.51" y="568.17" style="fill: rgb(51,51,51); fill-opacity: 1.0; font-family: sans-serif; font-size: 14px; font-weight: bold;" clip-path="url(#3133456787141615clip-0)">Month</text></g><g transform="matrix(1,0,0,1,0,0)"><text x="40.33" y="530.52" style="fill: rgb(51,51,51); fill-opacity: 1.0; font-family: sans-serif; font-size: 12px;" clip-path="url(#3133456787141615clip-0)">0</text></g><g transform="matrix(1,0,0,1,0,0)"><text x="16.97" y="506.85" style="fill: rgb(51,51,51); fill-opacity: 1.0; font-family: sans-serif; font-size: 12px;" clip-path="url(#3133456787141615clip-0)">1,000</text></g><g transform="matrix(1,0,0,1,0,0)"><text x="16.97" y="483.18" style="fill: rgb(51,51,51); fill-opacity: 1.0; font-family: sans-serif; font-size: 12px;" clip-path="url(#3133456787141615clip-0)">2,000</text></g><g transform="matrix(1,0,0,1,0,0)"><text x="16.97" y="459.52" style="fill: rgb(51,51,51); fill-opacity: 1.0; font-family: sans-serif; font-size: 12px;" clip-path="url(#3133456787141615clip-0)">3,000</text></g><g transform="matrix(1,0,0,1,0,0)"><text x="16.97" y="435.85" style="fill: rgb(51,51,51); fill-opacity: 1.0; font-family: sans-serif; font-size: 12px;" clip-path="url(#3133456787141615clip-0)">4,000</text></g><g transform="matrix(1,0,0,1,0,0)"><text x="16.97" y="412.18" style="fill: rgb(51,51,51); fill-opacity: 1.0; font-family: sans-serif; font-size: 12px;" clip-path="url(#3133456787141615clip-0)">5,000</text></g><g transform="matrix(1,0,0,1,0,0)"><text x="16.97" y="388.52" style="fill: rgb(51,51,51); fill-opacity: 1.0; font-family: sans-serif; font-size: 12px;" clip-path="url(#3133456787141615clip-0)">6,000</text></g><g transform="matrix(1,0,0,1,0,0)"><text x="16.97" y="364.85" style="fill: rgb(51,51,51); fill-opacity: 1.0; font-family: sans-serif; font-size: 12px;" clip-path="url(#3133456787141615clip-0)">7,000</text></g><g transform="matrix(1,0,0,1,0,0)"><text x="16.97" y="341.18" style="fill: rgb(51,51,51); fill-opacity: 1.0; font-family: sans-serif; font-size: 12px;" clip-path="url(#3133456787141615clip-0)">8,000</text></g><g transform="matrix(1,0,0,1,0,0)"><text x="16.97" y="317.52" style="fill: rgb(51,51,51); fill-opacity: 1.0; font-family: sans-serif; font-size: 12px;" clip-path="url(#3133456787141615clip-0)">9,000</text></g><g transform="matrix(1,0,0,1,0,0)"><text x="10.3" y="293.85" style="fill: rgb(51,51,51); fill-opacity: 1.0; font-family: sans-serif; font-size: 12px;" clip-path="url(#3133456787141615clip-0)">10,000</text></g><g transform="matrix(1,0,0,1,0,0)"><text x="10.3" y="270.18" style="fill: rgb(51,51,51); fill-opacity: 1.0; font-family: sans-serif; font-size: 12px;" clip-path="url(#3133456787141615clip-0)">11,000</text></g><g transform="matrix(1,0,0,1,0,0)"><text x="10.3" y="246.52" style="fill: rgb(51,51,51); fill-opacity: 1.0; font-family: sans-serif; font-size: 12px;" clip-path="url(#3133456787141615clip-0)">12,000</text></g><g transform="matrix(1,0,0,1,0,0)"><text x="10.3" y="222.85" style="fill: rgb(51,51,51); fill-opacity: 1.0; font-family: sans-serif; font-size: 12px;" clip-path="url(#3133456787141615clip-0)">13,000</text></g><g transform="matrix(1,0,0,1,0,0)"><text x="10.3" y="199.18" style="fill: rgb(51,51,51); fill-opacity: 1.0; font-family: sans-serif; font-size: 12px;" clip-path="url(#3133456787141615clip-0)">14,000</text></g><g transform="matrix(1,0,0,1,0,0)"><text x="10.3" y="175.52" style="fill: rgb(51,51,51); fill-opacity: 1.0; font-family: sans-serif; font-size: 12px;" clip-path="url(#3133456787141615clip-0)">15,000</text></g><g transform="matrix(1,0,0,1,0,0)"><text x="10.3" y="151.85" style="fill: rgb(51,51,51); fill-opacity: 1.0; font-family: sans-serif; font-size: 12px;" clip-path="url(#3133456787141615clip-0)">16,000</text></g><g transform="matrix(1,0,0,1,0,0)"><text x="10.3" y="128.18" style="fill: rgb(51,51,51); fill-opacity: 1.0; font-family: sans-serif; font-size: 12px;" clip-path="url(#3133456787141615clip-0)">17,000</text></g><g transform="matrix(1,0,0,1,0,0)"><text x="10.3" y="104.52" style="fill: rgb(51,51,51); fill-opacity: 1.0; font-family: sans-serif; font-size: 12px;" clip-path="url(#3133456787141615clip-0)">18,000</text></g><g transform="matrix(1,0,0,1,0,0)"><text x="10.3" y="80.85" style="fill: rgb(51,51,51); fill-opacity: 1.0; font-family: sans-serif; font-size: 12px;" clip-path="url(#3133456787141615clip-0)">19,000</text></g><g transform="matrix(1,0,0,1,0,0)"><text x="10.3" y="57.18" style="fill: rgb(51,51,51); fill-opacity: 1.0; font-family: sans-serif; font-size: 12px;" clip-path="url(#3133456787141615clip-0)">20,000</text></g><g transform="matrix(1,0,0,1,0,0)"><text x="10.3" y="33.52" style="fill: rgb(51,51,51); fill-opacity: 1.0; font-family: sans-serif; font-size: 12px;" clip-path="url(#3133456787141615clip-0)">21,000</text></g><line x1="53" y1="526" x2="792" y2="526" style="stroke-width: 1.0;stroke: rgb(229,229,229);stroke-opacity: 1.0;stroke-linecap: square;shape-rendering:crispEdges;" transform="matrix(1,0,0,1,0,0)" clip-path="url(#3133456787141615clip-1)"/><line x1="53" y1="502.33" x2="792" y2="502.33" style="stroke-width: 1.0;stroke: rgb(229,229,229);stroke-opacity: 1.0;stroke-linecap: square;shape-rendering:crispEdges;" transform="matrix(1,0,0,1,0,0)" clip-path="url(#3133456787141615clip-1)"/><line x1="53" y1="478.67" x2="792" y2="478.67" style="stroke-width: 1.0;stroke: rgb(229,229,229);stroke-opacity: 1.0;stroke-linecap: square;shape-rendering:crispEdges;" transform="matrix(1,0,0,1,0,0)" clip-path="url(#3133456787141615clip-1)"/><line x1="53" y1="455" x2="792" y2="455" style="stroke-width: 1.0;stroke: rgb(229,229,229);stroke-opacity: 1.0;stroke-linecap: square;shape-rendering:crispEdges;" transform="matrix(1,0,0,1,0,0)" clip-path="url(#3133456787141615clip-1)"/><line x1="53" y1="431.33" x2="792" y2="431.33" style="stroke-width: 1.0;stroke: rgb(229,229,229);stroke-opacity: 1.0;stroke-linecap: square;shape-rendering:crispEdges;" transform="matrix(1,0,0,1,0,0)" clip-path="url(#3133456787141615clip-1)"/><line x1="53" y1="407.67" x2="792" y2="407.67" style="stroke-width: 1.0;stroke: rgb(229,229,229);stroke-opacity: 1.0;stroke-linecap: square;shape-rendering:crispEdges;" transform="matrix(1,0,0,1,0,0)" clip-path="url(#3133456787141615clip-1)"/><line x1="53" y1="384" x2="792" y2="384" style="stroke-width: 1.0;stroke: rgb(229,229,229);stroke-opacity: 1.0;stroke-linecap: square;shape-rendering:crispEdges;" transform="matrix(1,0,0,1,0,0)" clip-path="url(#3133456787141615clip-1)"/><line x1="53" y1="360.33" x2="792" y2="360.33" style="stroke-width: 1.0;stroke: rgb(229,229,229);stroke-opacity: 1.0;stroke-linecap: square;shape-rendering:crispEdges;" transform="matrix(1,0,0,1,0,0)" clip-path="url(#3133456787141615clip-1)"/><line x1="53" y1="336.67" x2="792" y2="336.67" style="stroke-width: 1.0;stroke: rgb(229,229,229);stroke-opacity: 1.0;stroke-linecap: square;shape-rendering:crispEdges;" transform="matrix(1,0,0,1,0,0)" clip-path="url(#3133456787141615clip-1)"/><line x1="53" y1="313" x2="792" y2="313" style="stroke-width: 1.0;stroke: rgb(229,229,229);stroke-opacity: 1.0;stroke-linecap: square;shape-rendering:crispEdges;" transform="matrix(1,0,0,1,0,0)" clip-path="url(#3133456787141615clip-1)"/><line x1="53" y1="289.33" x2="792" y2="289.33" style="stroke-width: 1.0;stroke: rgb(229,229,229);stroke-opacity: 1.0;stroke-linecap: square;shape-rendering:crispEdges;" transform="matrix(1,0,0,1,0,0)" clip-path="url(#3133456787141615clip-1)"/><line x1="53" y1="265.67" x2="792" y2="265.67" style="stroke-width: 1.0;stroke: rgb(229,229,229);stroke-opacity: 1.0;stroke-linecap: square;shape-rendering:crispEdges;" transform="matrix(1,0,0,1,0,0)" clip-path="url(#3133456787141615clip-1)"/><line x1="53" y1="242" x2="792" y2="242" style="stroke-width: 1.0;stroke: rgb(229,229,229);stroke-opacity: 1.0;stroke-linecap: square;shape-rendering:crispEdges;" transform="matrix(1,0,0,1,0,0)" clip-path="url(#3133456787141615clip-1)"/><line x1="53" y1="218.33" x2="792" y2="218.33" style="stroke-width: 1.0;stroke: rgb(229,229,229);stroke-opacity: 1.0;stroke-linecap: square;shape-rendering:crispEdges;" transform="matrix(1,0,0,1,0,0)" clip-path="url(#3133456787141615clip-1)"/><line x1="53" y1="194.67" x2="792" y2="194.67" style="stroke-width: 1.0;stroke: rgb(229,229,229);stroke-opacity: 1.0;stroke-linecap: square;shape-rendering:crispEdges;" transform="matrix(1,0,0,1,0,0)" clip-path="url(#3133456787141615clip-1)"/><line x1="53" y1="171" x2="792" y2="171" style="stroke-width: 1.0;stroke: rgb(229,229,229);stroke-opacity: 1.0;stroke-linecap: square;shape-rendering:crispEdges;" transform="matrix(1,0,0,1,0,0)" clip-path="url(#3133456787141615clip-1)"/><line x1="53" y1="147.33" x2="792" y2="147.33" style="stroke-width: 1.0;stroke: rgb(229,229,229);stroke-opacity: 1.0;stroke-linecap: square;shape-rendering:crispEdges;" transform="matrix(1,0,0,1,0,0)" clip-path="url(#3133456787141615clip-1)"/><line x1="53" y1="123.67" x2="792" y2="123.67" style="stroke-width: 1.0;stroke: rgb(229,229,229);stroke-opacity: 1.0;stroke-linecap: square;shape-rendering:crispEdges;" transform="matrix(1,0,0,1,0,0)" clip-path="url(#3133456787141615clip-1)"/><line x1="53" y1="100" x2="792" y2="100" style="stroke-width: 1.0;stroke: rgb(229,229,229);stroke-opacity: 1.0;stroke-linecap: square;shape-rendering:crispEdges;" transform="matrix(1,0,0,1,0,0)" clip-path="url(#3133456787141615clip-1)"/><line x1="53" y1="76.33" x2="792" y2="76.33" style="stroke-width: 1.0;stroke: rgb(229,229,229);stroke-opacity: 1.0;stroke-linecap: square;shape-rendering:crispEdges;" transform="matrix(1,0,0,1,0,0)" clip-path="url(#3133456787141615clip-1)"/><line x1="53" y1="52.67" x2="792" y2="52.67" style="stroke-width: 1.0;stroke: rgb(229,229,229);stroke-opacity: 1.0;stroke-linecap: square;shape-rendering:crispEdges;" transform="matrix(1,0,0,1,0,0)" clip-path="url(#3133456787141615clip-1)"/><line x1="53" y1="29" x2="792" y2="29" style="stroke-width: 1.0;stroke: rgb(229,229,229);stroke-opacity: 1.0;stroke-linecap: square;shape-rendering:crispEdges;" transform="matrix(1,0,0,1,0,0)" clip-path="url(#3133456787141615clip-1)"/><line x1="111.5" y1="242" x2="168.05" y2="360.33" style="stroke-width: 3.0;stroke: rgb(230,69,69);stroke-opacity: 0.8;stroke-linecap: square;shape-rendering:geometricPrecision;" transform="matrix(1,0,0,1,0,0)" clip-path="url(#3133456787141615clip-1)"/><line x1="111.5" y1="313" x2="168.05" y2="336.67" style="stroke-width: 3.0;stroke: rgb(69,230,69);stroke-opacity: 0.8;stroke-linecap: square;shape-rendering:geometricPrecision;" transform="matrix(1,0,0,1,0,0)" clip-path="url(#3133456787141615clip-1)"/><line x1="168.05" y1="360.33" x2="224.59" y2="313" style="stroke-width: 3.0;stroke: rgb(230,69,69);stroke-opacity: 0.8;stroke-linecap: square;shape-rendering:geometricPrecision;" transform="matrix(1,0,0,1,0,0)" clip-path="url(#3133456787141615clip-1)"/><line x1="168.05" y1="336.67" x2="224.59" y2="313" style="stroke-width: 3.0;stroke: rgb(69,230,69);stroke-opacity: 0.8;stroke-linecap: square;shape-rendering:geometricPrecision;" transform="matrix(1,0,0,1,0,0)" clip-path="url(#3133456787141615clip-1)"/><line x1="224.59" y1="313" x2="281.14" y2="265.67" style="stroke-width: 3.0;stroke: rgb(230,69,69);stroke-opacity: 0.8;stroke-linecap: square;shape-rendering:geometricPrecision;" transform="matrix(1,0,0,1,0,0)" clip-path="url(#3133456787141615clip-1)"/><line x1="224.59" y1="313" x2="281.14" y2="242" style="stroke-width: 3.0;stroke: rgb(69,230,69);stroke-opacity: 0.8;stroke-linecap: square;shape-rendering:geometricPrecision;" transform="matrix(1,0,0,1,0,0)" clip-path="url(#3133456787141615clip-1)"/><line x1="281.14" y1="265.67" x2="337.68" y2="194.67" style="stroke-width: 3.0;stroke: rgb(230,69,69);stroke-opacity: 0.8;stroke-linecap: square;shape-rendering:geometricPrecision;" transform="matrix(1,0,0,1,0,0)" clip-path="url(#3133456787141615clip-1)"/><line x1="281.14" y1="242" x2="337.68" y2="218.33" style="stroke-width: 3.0;stroke: rgb(69,230,69);stroke-opacity: 0.8;stroke-linecap: square;shape-rendering:geometricPrecision;" transform="matrix(1,0,0,1,0,0)" clip-path="url(#3133456787141615clip-1)"/><line x1="337.68" y1="194.67" x2="394.23" y2="100" style="stroke-width: 3.0;stroke: rgb(230,69,69);stroke-opacity: 0.8;stroke-linecap: square;shape-rendering:geometricPrecision;" transform="matrix(1,0,0,1,0,0)" clip-path="url(#3133456787141615clip-1)"/><line x1="337.68" y1="218.33" x2="394.23" y2="194.67" style="stroke-width: 3.0;stroke: rgb(69,230,69);stroke-opacity: 0.8;stroke-linecap: square;shape-rendering:geometricPrecision;" transform="matrix(1,0,0,1,0,0)" clip-path="url(#3133456787141615clip-1)"/><line x1="394.23" y1="100" x2="450.77" y2="123.67" style="stroke-width: 3.0;stroke: rgb(230,69,69);stroke-opacity: 0.8;stroke-linecap: square;shape-rendering:geometricPrecision;" transform="matrix(1,0,0,1,0,0)" clip-path="url(#3133456787141615clip-1)"/><line x1="394.23" y1="194.67" x2="450.77" y2="147.33" style="stroke-width: 3.0;stroke: rgb(69,230,69);stroke-opacity: 0.8;stroke-linecap: square;shape-rendering:geometricPrecision;" transform="matrix(1,0,0,1,0,0)" clip-path="url(#3133456787141615clip-1)"/><line x1="450.77" y1="123.67" x2="507.32" y2="76.33" style="stroke-width: 3.0;stroke: rgb(230,69,69);stroke-opacity: 0.8;stroke-linecap: square;shape-rendering:geometricPrecision;" transform="matrix(1,0,0,1,0,0)" clip-path="url(#3133456787141615clip-1)"/><line x1="450.77" y1="147.33" x2="507.32" y2="171" style="stroke-width: 3.0;stroke: rgb(69,230,69);stroke-opacity: 0.8;stroke-linecap: square;shape-rendering:geometricPrecision;" transform="matrix(1,0,0,1,0,0)" clip-path="url(#3133456787141615clip-1)"/><line x1="507.32" y1="76.33" x2="563.86" y2="289.33" style="stroke-width: 3.0;stroke: rgb(230,69,69);stroke-opacity: 0.8;stroke-linecap: square;shape-rendering:geometricPrecision;" transform="matrix(1,0,0,1,0,0)" clip-path="url(#3133456787141615clip-1)"/><line x1="507.32" y1="171" x2="563.86" y2="265.67" style="stroke-width: 3.0;stroke: rgb(69,230,69);stroke-opacity: 0.8;stroke-linecap: square;shape-rendering:geometricPrecision;" transform="matrix(1,0,0,1,0,0)" clip-path="url(#3133456787141615clip-1)"/><line x1="563.86" y1="289.33" x2="620.41" y2="313" style="stroke-width: 3.0;stroke: rgb(230,69,69);stroke-opacity: 0.8;stroke-linecap: square;shape-rendering:geometricPrecision;" transform="matrix(1,0,0,1,0,0)" clip-path="url(#3133456787141615clip-1)"/><line x1="563.86" y1="265.67" x2="620.41" y2="336.67" style="stroke-width: 3.0;stroke: rgb(69,230,69);stroke-opacity: 0.8;stroke-linecap: square;shape-rendering:geometricPrecision;" transform="matrix(1,0,0,1,0,0)" clip-path="url(#3133456787141615clip-1)"/><line x1="620.41" y1="313" x2="676.95" y2="384" style="stroke-width: 3.0;stroke: rgb(230,69,69);stroke-opacity: 0.8;stroke-linecap: square;shape-rendering:geometricPrecision;" transform="matrix(1,0,0,1,0,0)" clip-path="url(#3133456787141615clip-1)"/><line x1="620.41" y1="336.67" x2="676.95" y2="360.33" style="stroke-width: 3.0;stroke: rgb(69,230,69);stroke-opacity: 0.8;stroke-linecap: square;shape-rendering:geometricPrecision;" transform="matrix(1,0,0,1,0,0)" clip-path="url(#3133456787141615clip-1)"/><line x1="676.95" y1="384" x2="733.5" y2="76.33" style="stroke-width: 3.0;stroke: rgb(230,69,69);stroke-opacity: 0.8;stroke-linecap: square;shape-rendering:geometricPrecision;" transform="matrix(1,0,0,1,0,0)" clip-path="url(#3133456787141615clip-1)"/><line x1="676.95" y1="360.33" x2="733.5" y2="52.67" style="stroke-width: 3.0;stroke: rgb(69,230,69);stroke-opacity: 0.8;stroke-linecap: square;shape-rendering:geometricPrecision;" transform="matrix(1,0,0,1,0,0)" clip-path="url(#3133456787141615clip-1)"/></svg>
